<svg xmlns="http://www.w3.org/2000/svg" viewBox="0 0 64 64"><g data-name="26-Work"><path fill="#ecefe8" d="M5,1H57a2,2,0,0,1,2,2V41a0,0,0,0,1,0,0H3a0,0,0,0,1,0,0V3A2,2,0,0,1,5,1Z"></path><polygon fill="#ecefe8" points="59 41 62 47 39 47 38 44 24 44 23 47 0 47 3 41 9 41 10 41 32 41 56 41 59 41"></polygon><path fill="#a9aba6" d="M39,47H62a4,4,0,0,1-4,4H4a4,4,0,0,1-4-4H39Z"></path><path fill="#9c9e99" d="M60,49H9a2,2,0,0,1-2-2H0a4,4,0,0,0,4,4H58a4,4,0,0,0,4-4A2,2,0,0,1,60,49Z"></path><path fill="#d1d4cd" d="M9.1,42.257,9.6,41H3L0,47H23l.667-2H10.954A2,2,0,0,1,9.1,42.257Z"></path><polygon fill="#d1d4cd" points="38.333 45 39 47 62 47 61 45 38.333 45"></polygon><path fill="#9c9e99" d="M57,1H5A2,2,0,0,0,3,3V41H59V3A2,2,0,0,0,57,1Zm1,39H4V3A1,1,0,0,1,5,2H57a1,1,0,0,1,1,1Z"></path><polygon fill="#8b8c88" points="38 44 39 47 23 47 24 44 38 44"></polygon><path fill="#777874" d="M26,44H24l-1,3H39l-.334-1C26.988,45.961,26,44,26,44Z"></path><path fill="#fff" d="M62,10v4H57v.5A2.492,2.492,0,0,1,54.5,17,2.5,2.5,0,0,0,52,19.5V23H45V20H44a3,3,0,0,1,0-6h4a2.015,2.015,0,0,0,2-2,2.006,2.006,0,0,1,2-2Z"></path><path fill="#397874" d="M56,38v3a2.006,2.006,0,0,1-2,2H42a2.006,2.006,0,0,1-2-2V23H56V38Z"></path><path fill="#ecefe8" d="M60,56v4H19a1,1,0,0,1-1-1V57a1,1,0,0,1,1-1Z"></path><path fill="#ecefe8" d="M60,46v4H19a1,1,0,0,1-1-1V47a1,1,0,0,1,1-1Z"></path><path fill="#326966" d="M62,60v3H18.78A4.78,4.78,0,0,1,14,58.22v-.44A4.78,4.78,0,0,1,18.78,53H62v3H19a1,1,0,0,0-1,1v2a1,1,0,0,0,1,1H62Z"></path><path fill="#eba800" d="M62,50v3H18.78A4.78,4.78,0,0,1,14,48.22v-.44A4.78,4.78,0,0,1,18.78,43H62v3H19a1,1,0,0,0-1,1v2a1,1,0,0,0,1,1H62Z"></path><rect width="10" height="2" x="7" y="6" fill="#173e43" rx="1"></rect><rect width="20" height="2" x="7" y="10" fill="#606060"></rect><rect width="20" height="2" x="7" y="14" fill="#606060"></rect><path fill="#27514f" d="M59,39H56V37h3a1,1,0,0,0,1-1V28a1,1,0,0,0-1-1H56V25h3a3,3,0,0,1,3,3v8A3,3,0,0,1,59,39Z"></path><path fill="#449c80" d="M25.06,21.59A5.979,5.979,0,0,1,27,26H21V20A5.926,5.926,0,0,1,25.06,21.59Z"></path><path fill="#eba800" d="M12.53,26.53A6.006,6.006,0,0,1,18,23v6h6a6,6,0,1,1-11.47-2.47Z"></path><path fill="#d1d4cd" d="M24,28.5H18.5V23a.5.5,0,0,0-.5-.5,6.517,6.517,0,0,0-5.926,3.824A6.439,6.439,0,0,0,11.5,29a6.5,6.5,0,0,0,13,0A.5.5,0,0,0,24,28.5ZM18,35a6,6,0,1,1,0-12v6h6A6,6,0,0,1,18,35Z"></path><path fill="#d1d4cd" d="M25.4,21.222A6.427,6.427,0,0,0,21,19.5a.5.5,0,0,0-.5.5v6a.5.5,0,0,0,.5.5h6a.5.5,0,0,0,.5-.5A6.5,6.5,0,0,0,25.4,21.222ZM24,26H21V20a6.014,6.014,0,0,1,6,6Z"></path><path fill="#606060" d="M14,28.5a.5.5,0,0,1-.354-.146L10.793,25.5H6a.5.5,0,0,1,0-1h5a.5.5,0,0,1,.354.146l3,3A.5.5,0,0,1,14,28.5Z"></path><path fill="#606060" d="M24,23.5a.5.5,0,0,1-.4-.8l3-4a.5.5,0,0,1,.4-.2h3a.5.5,0,0,1,0,1H27.25L24.4,23.3A.5.5,0,0,1,24,23.5Z"></path><path fill="#cf7900" d="M19,46H62V43H60v1a1,1,0,0,1-1,1H19a2,2,0,0,0-2,2v2a2,2,0,0,0,2,2H59a1,1,0,0,1,1,1v1h2V50H19a1,1,0,0,1-1-1V47A1,1,0,0,1,19,46Z"></path><path fill="#d1d4cd" d="M18,47v2a1,1,0,0,0,1,1h2a1,1,0,0,1,0-2H60V46H19A1,1,0,0,0,18,47Z"></path><path fill="#173e43" d="M19,56H62V53H60v1a1,1,0,0,1-1,1H19a2,2,0,0,0-2,2v2a2,2,0,0,0,2,2H59a1,1,0,0,1,1,1v1h2V60H19a1,1,0,0,1-1-1V57A1,1,0,0,1,19,56Z"></path><path fill="#d1d4cd" d="M18,57v2a1,1,0,0,0,1,1h2a1,1,0,0,1,0-2H60V56H19A1,1,0,0,0,18,57Z"></path><rect width="4" height="2" x="53" y="43" fill="#f5c10d" rx="1"></rect><rect width="22" height="2" x="29" y="43" fill="#f5c10d" rx="1"></rect><rect width="4" height="2" x="53" y="53" fill="#397874" rx="1"></rect><rect width="22" height="2" x="29" y="53" fill="#397874" rx="1"></rect><path fill="#27514f" d="M54,40H51a8,8,0,0,1-8-8V23H40V41a2.006,2.006,0,0,0,2,2H54a2.006,2.006,0,0,0,2-2V38A2,2,0,0,1,54,40Z"></path><rect width="3" height="17" x="37" y="23" fill="#d1d4cd"></rect><path fill="#d1d4cd" d="M39,43h3a2.006,2.006,0,0,1-2-2H37A2.006,2.006,0,0,0,39,43Z"></path><path fill="#d1d4cd" d="M18.78,43h-3a4.764,4.764,0,0,0-3.875,2h3A4.764,4.764,0,0,1,18.78,43Z"></path><path fill="#777874" d="M14.079,49A4.665,4.665,0,0,1,14,48.22v-.44a4.665,4.665,0,0,1,.079-.78h-3a4.665,4.665,0,0,0-.079.78v.44a4.665,4.665,0,0,0,.079.78,4.74,4.74,0,0,0,.826,2h3A4.74,4.74,0,0,1,14.079,49Z"></path><path fill="#9c9e99" d="M14.905,45h-3a4.74,4.74,0,0,0-.826,2h3A4.74,4.74,0,0,1,14.905,45Z"></path><rect width="3" height="1" x="37" y="40" fill="#8b8c88"></rect><rect width="2" height="3" x="53" y="25" fill="#45918d" rx="1"></rect><rect width="2" height="6" x="53" y="29" fill="#45918d" rx="1"></rect></g></svg>